HIERARCHY
ROOT pelvis
{
  OFFSET 0 100 0
  CHANNELS 6 Xposition Yposition Zposition Zrotation Xrotation Yrotation
  JOINT pelvis_right_femur
  {
    OFFSET -10.78128 -3.44521 -0.5502486
    CHANNELS 3 Zrotation Xrotation Yrotation
    JOINT right_femur_tibia
    {
      OFFSET -0.8047443 -44.0398 -0.1307829
      CHANNELS 3 Zrotation Xrotation Yrotation
      JOINT right_tibia_foot
      {
        OFFSET 3.006224 -47.83518 -5
        CHANNELS 3 Zrotation Xrotation Yrotation
        End Site
        {
          OFFSET 0 -5 15
        }
      }
    }
  }
  JOINT pelvis_left_femur
  {
    OFFSET 10.78128 -3.44521 -0.5502486
    CHANNELS 3 Zrotation Xrotation Yrotation
    JOINT left_femur_tibia
    {
      OFFSET 0.8047443 -44.0398 -0.1307829
      CHANNELS 3 Zrotation Xrotation Yrotation
      JOINT left_tibia_foot
      {
        OFFSET -4.370144 -48.10324 -4.275266
        CHANNELS 3 Zrotation Xrotation Yrotation
        End Site
        {
          OFFSET 0 -5 15
        }
      }
    }
  }
  JOINT pelvis_spine1
  {
    OFFSET 0 6.468898 -3.129235
    CHANNELS 3 Zrotation Xrotation Yrotation
    JOINT spine1
    {
      OFFSET 0 23.15396 4.99043
      CHANNELS 3 Zrotation Xrotation Yrotation
      JOINT spine2
      {
        OFFSET 0 20.79997 -5.064912
        CHANNELS 3 Zrotation Xrotation Yrotation
        JOINT neck
        {
          OFFSET 0 14.38658 9.616178
          CHANNELS 3 Zrotation Xrotation Yrotation
          End Site
          {
            OFFSET 0 20 0
          }
        }
      }
      JOINT right_manubrium
      {
        OFFSET -5.722621 16.35077 3.967754
        CHANNELS 3 Zrotation Xrotation Yrotation
        JOINT right_clavicle
        {
          OFFSET -13.16364 1.694482 -4.693211
          CHANNELS 3 Zrotation Xrotation Yrotation
          JOINT right_humerus
          {
            OFFSET -28.5034 -0.3100689 -2.792744
            CHANNELS 3 Zrotation Xrotation Yrotation
            JOINT right_radius
            {
              OFFSET -25.15693 0.02248979 -1.271978
              CHANNELS 3 Zrotation Xrotation Yrotation
              End Site
              {
                OFFSET -15 0 0
              }
            }
          }
        }
      }
      JOINT left_manubrium
      {
        OFFSET 5.722621 16.35077 3.967754
        CHANNELS 3 Zrotation Xrotation Yrotation
        JOINT left_clavicle
        {
          OFFSET 13.16364 1.694482 -4.693211
          CHANNELS 3 Zrotation Xrotation Yrotation
          JOINT left_humerus
          {
            OFFSET 29.39168 -1.063119 -2.237045
            CHANNELS 3 Zrotation Xrotation Yrotation
            JOINT left_radius
            {
              OFFSET 24.59957 -0.9528479 0.9047498
              CHANNELS 3 Zrotation Xrotation Yrotation
              End Site
              {
                OFFSET 15 -0 -0
              }
            }
          }
        }
      }
    }
  }
}
MOTION
Frames: 11
Frame Time: 0.0416666666667
0 103.5113 0 1.977712 -1.753623 0.06866591 -0.05764426 -11.61156 8.648612 -0 41.1492 -0 -5.998628 -13.62979 -3.062118 -7.605663 11.64211 -26.25483 -0 4.481376 -0 1.779574 -19.41036 26.37805 -1.820153 -1.384948 2.768046 2.153234 5.710653 -7.495002 1.446346 23.95157 7.11767 3.828964 -23.03916 8.696884 5.53931 -17.48966 10.34007 87.72619 35.46038 -22.95873 -0 0 14.8631 -6.34661 8.560552 2.023863 5.094208 -19.25289 -2.852015 -101.2918 42.23896 28.38597 0 0 -20.41277 -10.45234 19.12981 27.88763
0.2421518 103.5707 1.328173 1.966975 -1.198627 0.0970515 0.1143114 -13.1505 9.238622 -0 41.3054 -0 -4.921061 -14.57917 -3.280977 -7.680521 12.14171 -26.73048 -0 3.90142 -0 1.39213 -20.27519 26.35721 -1.826412 -1.36262 2.723231 2.169938 5.69987 -7.521151 1.439734 23.9507 7.154468 3.832124 -23.07725 8.724521 5.546794 -17.40187 10.34414 87.82889 35.56192 -23.07793 -0 0 14.64854 -6.416804 8.638991 2.07929 5.088055 -19.28493 -2.851432 -101.0812 42.29932 28.12317 0 0 -20.66743 -10.4732 19.09569 27.93513
0.4626907 103.4026 2.7869 1.478856 -1.020526 0.1281117 1.720502 -17.58854 8.008994 -0 37.35035 -0 -5.733675 -12.37669 -2.817677 -7.346081 12.67033 -25.13169 -0 4.548841 -0 3.165441 -21.18903 25.92873 -1.898534 -1.266269 2.948351 2.300473 6.222527 -7.672207 1.211093 23.48047 7.302939 3.854371 -23.55729 8.542871 5.525725 -17.4752 10.62562 87.72858 35.7181 -22.69775 -0 0 14.01402 -7.582661 8.851911 3.360362 4.955363 -19.54646 -2.816315 -98.89283 40.44601 26.33788 0 0 -21.44246 -8.722934 17.83432 25.94963
0.666848 103.0792 4.390983 1.162364 -0.5153839 0.1796368 2.684302 -21.03574 7.321179 -0 34.32857 -0 -5.806451 -10.86312 -2.416217 -7.189513 13.10269 -24.18495 -0 4.812744 -0 3.710244 -22.25682 25.38826 -1.937475 -1.231837 3.001735 2.42057 6.466948 -7.830306 1.094364 23.22425 7.391384 3.851104 -23.91094 8.497234 5.491631 -17.44731 10.74952 87.89702 35.73966 -22.82439 -0 0 13.50076 -7.938546 8.800519 3.877952 4.927293 -19.76264 -2.78133 -97.67336 39.56718 25.20459 0 0 -22.16343 -7.744713 17.14394 24.85258
0.858596 102.6071 6.194869 0.7890966 0.3723639 0.2813662 3.699712 -24.81393 6.98436 -0 31.25833 -0 -5.306747 -9.911419 -2.183042 -7.010213 13.59431 -23.3214 -0 4.841292 -0 3.729868 -23.45286 24.51012 -1.974955 -1.176425 3.071393 2.512732 6.728551 -7.949412 0.9813277 22.97804 7.474882 3.850726 -24.18138 8.427206 5.471134 -17.41055 10.88771 87.97474 35.83167 -22.79408 -0 0 13.00282 -8.498576 8.907266 4.510702 4.871473 -19.94791 -2.76486 -96.46504 38.59137 24.12188 0 0 -22.7831 -6.829832 16.45241 23.812
1.043019 101.992 8.278889 0.4048924 1.429407 0.4545975 4.611848 -28.36928 6.71024 -0 28.10353 -0 -4.649609 -8.957171 -1.948848 -6.833981 14.01597 -22.45531 -0 4.938499 -0 3.255011 -24.59209 23.33621 -2.003819 -1.136925 3.098586 2.603172 6.922251 -8.071359 0.8956565 22.78353 7.543616 3.843823 -24.42224 8.391063 5.447187 -17.34936 10.98753 88.12101 35.89102 -22.89163 -0 0 12.53404 -8.856 8.952487 4.953887 4.841531 -20.12346 -2.748157 -95.48717 37.85245 23.19138 0 0 -23.39217 -6.098587 15.90571 22.983
1.225813 101.2481 10.75254 -0.02932124 2.615546 0.7133575 5.483942 -31.69807 6.432656 -0 24.77817 -0 -3.950901 -7.930156 -1.733044 -6.619604 14.38422 -21.47076 -0 5.316714 -0 2.342774 -25.51703 21.77498 -2.029114 -1.095486 3.115841 2.682314 7.096811 -8.180278 0.82103 22.61233 7.605779 3.836284 -24.6209 8.358044 5.42726 -17.27538 11.07817 88.2603 35.96366 -22.9815 -0 0 12.08136 -9.216037 9.033297 5.369493 4.810921 -20.28462 -2.739249 -94.59415 37.1718 22.33072 0 0 -23.96271 -5.460598 15.41435 22.25646
1.41258 100.3992 13.73511 -0.5116601 3.822476 1.062923 6.269635 -34.55527 6.076911 -0 21.39085 -0 -3.367849 -6.752417 -1.540367 -6.35655 14.70222 -20.33525 -0 6.245717 -0 1.031554 -26.03112 19.82838 -2.050981 -1.056272 3.118255 2.756412 7.248038 -8.285063 0.7570022 22.46269 7.662688 3.827266 -24.79455 8.334105 5.40857 -17.18814 11.15647 88.41494 36.0368 -23.10056 -0 0 11.63698 -9.535651 9.11973 5.732513 4.785553 -20.43886 -2.734451 -93.7817 36.57007 21.52517 0 0 -24.5213 -4.904207 14.9799 21.6224
1.609438 99.49638 17.34808 -1.045481 4.922843 1.497446 6.955007 -36.66927 5.625957 -0 18.19854 -0 -3.039809 -5.466352 -1.420329 -6.026415 14.98266 -19.02948 -0 8.110624 -0 -0.5771999 -25.86232 17.53383 -2.070993 -1.013907 3.116112 2.82206 7.391273 -8.380813 0.6987172 22.32613 7.716168 3.818563 -24.93695 8.308893 5.393162 -17.09125 11.23103 88.56127 36.12144 -23.20733 -0 0 11.19871 -9.879175 9.239819 6.092107 4.757687 -20.58517 -2.737208 -93.00819 35.99088 20.7517 0 0 -25.05748 -4.402331 14.57386 21.04721
1.823031 98.63404 21.69242 -1.61355 5.746104 1.993096 7.525129 -37.68528 5.097124 -0 15.61565 -0 -3.115689 -4.166601 -1.422138 -5.624488 15.19989 -17.57553 -0 11.41442 -0 -2.306876 -24.71451 15.02814 -2.089629 -0.9668587 3.115971 2.875887 7.532541 -8.462927 0.6447112 22.20048 7.765456 3.811278 -25.04119 8.27666 5.382031 -16.99018 11.30475 88.68223 36.21778 -23.2764 -0 0 10.77804 -10.27315 9.402436 6.46635 4.72436 -20.72015 -2.749547 -92.26961 35.41315 20.01652 0 0 -25.55113 -3.947929 14.18756 20.52067
2.060096 97.9664 26.81768 -2.171788 6.099813 2.502006 7.970017 -37.19915 4.536282 -0 14.1206 -0 -3.739243 -2.988222 -1.567191 -5.161244 15.21745 -16.03043 -0 16.74269 -0 -3.936712 -22.33111 12.53558 -2.107293 -0.912214 3.130064 2.909206 7.680107 -8.5194 0.5939476 22.08528 7.807981 3.807559 -25.0881 8.22711 5.377707 -16.89572 11.38164 88.74062 36.3274 -23.25362 -0 0 10.40464 -10.76704 9.627473 6.885086 4.679861 -20.8332 -2.775678 -91.57549 34.80781 19.34867 0 0 -25.95148 -3.54213 13.81334 20.03939
